HIERARCHY
ROOT root
{
	OFFSET 0.000000 0.000000 0.000000
	CHANNELS 6 Xposition Yposition Zposition Zrotation Yrotation Xrotation
	JOINT lhip
	{
		OFFSET 0.058581 -0.082280 -0.017664
		CHANNELS 3 Zrotation Yrotation Xrotation
		JOINT lknee
		{
			OFFSET 0.043451 -0.386469 0.008037
			CHANNELS 3 Zrotation Yrotation Xrotation
			JOINT lankle
			{
				OFFSET -0.014790 -0.426874 -0.037428
				CHANNELS 3 Zrotation Yrotation Xrotation
				JOINT ltoe
				{
					OFFSET 0.041054 -0.060286 0.122042
					CHANNELS 3 Zrotation Yrotation Xrotation
					End Site
					{
						OFFSET 0.000000 0.000000 0.000000
					}
				}
			}
		}
	}
	JOINT rhip
	{
		OFFSET -0.060310 -0.090513 -0.013543
		CHANNELS 3 Zrotation Yrotation Xrotation
		JOINT rknee
		{
			OFFSET -0.043257 -0.383688 -0.004843
			CHANNELS 3 Zrotation Yrotation Xrotation
			JOINT rankle
			{
				OFFSET 0.019056 -0.420046 -0.034562
				CHANNELS 3 Zrotation Yrotation Xrotation
				JOINT rtoe
				{
					OFFSET -0.034840 -0.062106 0.130323
					CHANNELS 3 Zrotation Yrotation Xrotation
					End Site
					{
						OFFSET 0.000000 0.000000 0.000000
					}
				}
			}
		}
	}
	JOINT lowerback
	{
		OFFSET 0.004439 0.124404 -0.038385
		CHANNELS 3 Zrotation Yrotation Xrotation
		JOINT upperback
		{
			OFFSET 0.004488 0.137956 0.026820
			CHANNELS 3 Zrotation Yrotation Xrotation
			JOINT chest
			{
				OFFSET -0.002265 0.056032 0.002855
				CHANNELS 3 Zrotation Yrotation Xrotation
				JOINT lowerneck
				{
					OFFSET -0.013390 0.211636 -0.033468
					CHANNELS 3 Zrotation Yrotation Xrotation
					JOINT upperneck
					{
						OFFSET 0.010113 0.088937 0.050410
						CHANNELS 3 Zrotation Yrotation Xrotation
						End Site
						{
							OFFSET 0.000000 0.000000 0.000000
						}
					}
				}
				JOINT lclavicle
				{
					OFFSET 0.071702 0.114000 -0.018898
					CHANNELS 3 Zrotation Yrotation Xrotation
					JOINT lshoulder
					{
						OFFSET 0.122921 0.045205 -0.019046
						CHANNELS 3 Zrotation Yrotation Xrotation
						JOINT lelbow
						{
							OFFSET 0.255332 -0.015649 -0.022946
							CHANNELS 3 Zrotation Yrotation Xrotation
							JOINT lwrist
							{
								OFFSET 0.265709 0.012698 -0.007375
								CHANNELS 3 Zrotation Yrotation Xrotation
								End Site
								{
									OFFSET 0.000000 0.000000 0.000000
								}
							}
						}
					}
				}
				JOINT rclavicle
				{
					OFFSET -0.082954 0.112472 -0.023707
					CHANNELS 3 Zrotation Yrotation Xrotation
					JOINT rshoulder
					{
						OFFSET -0.113228 0.046853 -0.008472
						CHANNELS 3 Zrotation Yrotation Xrotation
						JOINT relbow
						{
							OFFSET -0.260127 -0.014369 -0.031269
							CHANNELS 3 Zrotation Yrotation Xrotation
							JOINT rwrist
							{
								OFFSET -0.269108 0.006794 -0.006027
								CHANNELS 3 Zrotation Yrotation Xrotation
								End Site
								{
									OFFSET 0.000000 0.000000 0.000000
								}
							}
						}
					}
				}
			}
		}
	}
}
MOTION
Frames: 17
Frame Time: 0.033333
0.045246 0.410828 1.139250 93.388105 12.303316 84.024178 7.280963 -0.521448 3.657307 -4.922810 -18.631526 13.659264 -3.945377 12.390996 9.758576 0.000000 -0.000000 0.000000 -11.379955 4.907887 -63.379951 -5.965450 -22.599155 136.043777 -0.200749 0.421326 -11.710684 0.000000 -0.000000 0.000000 4.220000 -15.524146 23.517131 6.322023 3.028770 -7.295330 0.307766 -2.245317 -0.498367 4.141363 3.208088 -3.313354 -2.160576 -6.553051 4.980653 -19.166616 4.041101 -1.983988 -55.731452 1.954021 15.625705 -7.748705 -55.494430 32.735782 -6.314035 -2.310894 0.703629 18.681962 -2.526245 -2.273379 50.471976 -4.847169 13.002837 -4.040903 53.737345 20.016599 -2.296128 -5.631200 13.702461 
0.044146 0.412134 1.133551 92.294651 11.205760 83.989578 6.095836 -3.323919 3.776494 -5.678078 -19.050069 14.408947 -1.938097 12.947270 2.999115 0.000000 -0.000000 0.000000 -10.232146 6.049295 -62.202322 -5.601337 -22.232112 135.884834 0.585064 -0.595221 -11.290494 0.000000 -0.000000 0.000000 3.192724 -14.261528 23.559766 6.101059 3.050607 -7.090975 0.133950 -2.304660 -0.526687 4.772266 3.444169 -4.917298 -2.583187 -6.949741 4.783265 -20.731764 4.166314 -1.842887 -55.754298 1.860359 16.051114 -5.601061 -51.999966 30.721388 -7.206672 -1.783394 0.498490 20.542271 -1.987839 -2.436707 49.940466 -3.376080 14.190241 -4.390697 50.847164 20.084741 -1.794850 -5.476434 13.039989 
0.045204 0.413458 1.116276 90.860146 10.258873 84.419190 4.851355 -4.379234 2.786504 -5.639468 -18.154545 15.553074 -1.500870 13.780517 2.657061 0.000000 -0.000000 0.000000 -9.585898 7.351287 -61.292200 -5.569186 -21.732125 134.197873 0.338068 -0.999817 -11.263527 0.000000 -0.000000 0.000000 2.925761 -13.334703 22.342230 5.654961 3.111136 -6.352982 -0.280035 -1.980366 -1.062806 4.908711 3.257424 -5.101578 -2.632917 -6.785276 4.061314 -21.797497 3.839831 -0.962315 -56.160290 2.197414 15.667304 -3.052720 -48.994375 28.077975 -8.670249 -1.324450 1.844781 21.115885 -1.006457 -1.578448 50.933407 -2.163673 14.502297 -5.619166 48.333832 19.060867 -0.008862 -5.705021 11.666495 
0.047051 0.415478 1.088174 88.734691 9.558690 84.785679 4.214642 -4.049477 1.557263 -6.594629 -15.103014 18.017722 -1.615812 13.526828 4.672912 0.000000 -0.000000 0.000000 -9.401286 9.613216 -60.801306 -5.754111 -21.295369 131.882940 -0.326773 -1.321675 -11.857718 0.000000 -0.000000 0.000000 3.162100 -12.865525 20.897258 5.026795 3.892275 -5.290399 -0.986948 -1.418823 -1.661766 4.960053 3.535363 -5.526252 -2.886932 -6.599108 3.533904 -22.212575 3.953922 -1.091616 -56.444902 2.908872 15.291142 -0.910516 -46.882674 26.370394 -12.798066 -1.177982 3.251585 21.149666 -0.052512 -0.760995 52.344783 -1.164691 14.511590 -7.487181 47.035521 18.003774 5.469396 -6.623437 8.539076 
0.047662 0.418220 1.049995 86.558066 8.299827 84.839565 3.308778 -4.009109 0.683326 -9.541456 -12.717512 22.122608 1.919719 13.307575 -6.787052 0.000000 -0.000000 0.000000 -9.329553 11.508588 -60.755233 -4.806385 -20.430947 129.241639 -0.181057 -3.518070 -13.123794 0.000000 -0.000000 0.000000 2.835623 -12.328478 20.927305 4.175668 4.864817 -6.358016 -1.636594 -0.796193 -1.016556 4.942321 3.073860 -6.031441 -3.147151 -6.273977 2.618313 -22.488138 4.605534 -0.791672 -55.267433 2.971011 14.598165 -0.138340 -47.703377 26.875618 -13.204233 -1.682830 4.213189 20.887715 0.112439 -0.312955 53.896258 -0.285487 15.380956 -9.620068 47.123433 16.749701 6.017135 -6.169165 8.119888 
0.046343 0.422519 1.007663 85.440875 6.410465 84.085744 1.313458 -4.183904 -1.545361 -12.693778 -12.329700 29.289270 5.330128 15.404970 -16.437769 0.000000 -0.000000 0.000000 -8.579791 12.273836 -60.079337 -3.262356 -18.454765 126.216562 -0.608461 -6.716763 -14.753957 0.000000 -0.000000 0.000000 1.996276 -11.632434 22.518304 3.108212 5.183710 -7.465313 -2.192167 -0.741127 0.608760 4.802870 2.866340 -9.114490 -3.568092 -5.480171 2.375519 -24.080122 4.610738 -1.296124 -51.514574 2.352057 13.762291 1.131577 -50.461222 25.294902 -10.480355 -2.588771 4.267787 22.027982 0.639206 -1.008534 53.696456 0.909037 16.892370 -12.591597 48.447344 14.090759 5.682456 -6.644444 8.647678 
0.043760 0.425926 0.969721 84.966063 4.214087 82.538084 -1.330799 -4.762207 -3.957133 -15.910451 -11.126326 37.234869 7.061750 18.747853 -23.570148 0.000000 -0.000000 0.000000 -8.320229 13.269134 -59.305852 -2.514034 -16.104233 123.320170 0.485878 -8.645476 -15.397090 0.000000 -0.000000 0.000000 0.228759 -9.821146 24.737906 2.712997 4.891298 -7.084673 -2.293777 -0.800639 1.715602 5.107113 3.912694 -13.583990 -4.571744 -6.667514 4.404767 -23.737315 4.361040 -2.282060 -48.843934 0.098303 12.753519 2.076856 -53.294891 24.247060 -5.315652 -4.540929 7.611346 22.254218 0.584597 -2.386990 54.027369 1.631097 17.671276 -15.653280 50.440577 12.052926 3.938978 -4.770655 10.781300 
0.043536 0.428678 0.945127 84.440844 3.027964 80.841596 -3.937278 -6.064548 -3.385456 -15.031115 -9.026808 39.610699 8.252002 21.732509 -28.389503 0.000000 -0.000000 0.000000 -7.847837 14.357723 -58.615911 -2.276387 -14.248031 120.395426 0.386022 -10.975581 -16.634231 0.000000 -0.000000 0.000000 -0.557930 -8.541303 26.680991 2.539280 4.776483 -6.295971 -2.240225 -0.694335 1.603273 5.038944 4.135467 -14.271351 -4.532966 -7.288689 3.399151 -22.948489 3.856584 -2.049427 -46.084035 -1.279264 11.482272 3.626159 -57.317650 22.318103 -8.456036 -3.967956 6.956976 22.187110 0.553912 -2.361103 53.818430 1.450195 17.798636 -20.163224 53.913667 8.159235 4.356699 -4.667733 11.229638 
0.045221 0.429372 0.937333 84.221147 3.699179 79.703070 -4.227863 -6.307127 -2.655736 -14.524448 -9.540809 40.756596 8.885020 24.276458 -29.929387 0.000000 -0.000000 0.000000 -7.089122 15.762659 -58.649668 -2.009866 -14.396469 117.682775 0.446765 -11.833175 -17.458525 0.000000 -0.000000 0.000000 -0.292170 -8.636446 27.274066 3.031892 5.121877 -5.855419 -1.775866 -0.405120 2.332077 4.806640 4.811844 -14.533372 -4.925789 -7.730108 3.340284 -22.055684 2.948690 -2.848262 -43.927921 -2.059474 11.336968 4.784746 -59.865734 21.032470 -5.730689 -4.716908 8.793216 21.647525 0.808596 -3.188175 53.446260 0.246674 18.226966 -22.997891 56.555547 5.554904 2.129005 -4.737513 10.574304 
0.046240 0.428222 0.948031 84.869998 4.918675 79.174656 -2.992598 -7.372627 -1.474612 -14.587874 -10.341339 39.872045 7.187335 24.256970 -28.275735 0.000000 -0.000000 0.000000 -7.628516 16.611785 -59.426832 -2.284492 -15.505059 116.478429 0.920977 -11.477209 -17.605141 0.000000 -0.000000 0.000000 -0.155909 -8.769202 27.629737 4.175924 4.990183 -5.266250 -1.040716 -0.649181 2.268181 4.645938 6.194820 -14.660896 -5.379682 -8.405611 3.799670 -20.570563 2.330729 -3.138077 -43.018509 -2.459414 11.646369 6.188699 -62.186750 19.627701 -4.584466 -5.549573 8.999534 21.454401 0.650059 -3.717638 53.184992 -0.492279 18.446829 -25.185691 58.742281 3.591010 0.222089 -4.692730 10.456722 
0.048413 0.427557 0.973773 86.281438 6.142525 79.519862 -1.732819 -6.746923 1.580237 -12.699895 -13.793343 33.793141 6.024440 22.587940 -23.596879 0.000000 -0.000000 0.000000 -8.790981 15.098640 -60.684916 -3.032183 -16.054661 117.470261 0.631391 -11.635123 -17.771073 0.000000 -0.000000 0.000000 0.239745 -10.109512 27.530935 4.811376 4.539903 -5.326507 -0.552584 -0.734350 1.725942 4.365557 7.391538 -12.969093 -4.788876 -8.504373 2.800223 -19.094358 2.609020 -3.433022 -42.237699 -2.329066 12.052004 3.931631 -64.408172 21.056926 -2.969436 -5.800966 6.497000 21.530341 0.210773 -4.020924 53.505601 -1.399292 18.615871 -25.212900 60.138016 3.217179 -2.449215 -4.442358 12.440678 
0.050431 0.426401 1.009876 87.549462 7.525009 80.623588 -0.074719 -3.539926 4.270635 -9.340494 -19.085178 26.416130 4.509262 19.375457 -15.811054 0.000000 -0.000000 0.000000 -9.289758 12.699797 -62.175487 -3.935178 -16.405151 120.002962 -0.503433 -11.448358 -17.635199 0.000000 -0.000000 0.000000 1.325565 -11.969680 26.333866 5.032849 4.794100 -6.013312 -0.365807 -0.729910 1.372257 3.919374 7.187256 -13.203073 -5.254815 -8.629061 6.087918 -18.299523 2.679717 -2.912466 -42.280597 -2.270000 11.826663 1.056551 -65.007352 23.488521 -2.419545 -6.083361 4.576464 21.153962 -0.128591 -3.705942 55.118302 -2.174718 17.451944 -23.768722 59.637119 3.892614 -1.098245 -4.311224 12.446269 
0.054558 0.424629 1.051243 87.856715 8.565136 81.033132 2.362601 -1.410289 7.212712 -6.294368 -19.772623 17.969692 0.529202 14.910137 -3.701778 0.000000 -0.000000 0.000000 -9.510925 11.394627 -62.221917 -5.191979 -17.029629 123.235799 -1.445923 -9.371123 -16.369508 0.000000 -0.000000 0.000000 2.273125 -12.944419 25.488805 5.149831 5.321143 -6.155721 -0.365067 -0.439930 0.307919 3.260262 7.142112 -10.653278 -4.831549 -9.006456 6.814079 -17.237422 2.235507 -2.678951 -44.252511 -1.547961 12.382777 0.027963 -63.910430 24.608820 -3.365213 -5.901884 3.946585 20.439781 -0.247836 -3.155711 57.433366 -3.361462 15.590969 -22.735645 58.113944 3.696309 -0.220531 -4.125416 12.041046 
0.055978 0.422560 1.090284 88.372195 8.733583 81.743650 4.324052 -0.416139 7.906110 -4.842772 -16.705943 11.222864 -4.252519 11.397085 10.912167 0.000000 -0.000000 0.000000 -9.629490 10.076465 -61.848130 -6.310441 -17.534414 126.671748 -3.026258 -7.021201 -15.009927 0.000000 -0.000000 0.000000 2.525559 -12.970779 24.856002 5.284108 5.177922 -6.667551 -0.359071 -0.441405 -0.786691 2.675218 6.830522 -7.929418 -3.960996 -9.261464 6.657698 -16.666388 2.237816 -2.551524 -46.501356 -0.990788 12.812466 -0.299026 -62.171692 25.169600 -5.711405 -5.131167 2.879084 19.917247 -0.169042 -2.191771 59.493459 -3.315329 14.113189 -22.160604 55.710256 3.987956 1.107737 -4.283620 11.396359 
0.055115 0.420089 1.121123 89.456976 8.514375 83.275231 4.467332 -0.871435 5.335622 -4.356030 -15.409936 11.416589 -3.563250 12.531663 16.268172 0.000000 -0.000000 0.000000 -9.705460 8.809394 -61.709950 -6.831650 -18.574857 129.793207 -3.295660 -5.742545 -15.122953 0.000000 -0.000000 0.000000 2.790095 -12.871358 23.179869 5.176116 4.548510 -7.450436 -0.460439 -0.579360 -1.175704 2.297023 5.102313 -5.672816 -2.962504 -8.121132 6.018261 -16.731819 2.460713 -2.124989 -48.199538 -0.583110 12.769408 -0.762600 -60.507431 25.774855 -5.536095 -4.039432 1.292756 19.417181 -0.374348 -1.411951 60.736242 -2.959191 13.291244 -19.902584 53.851265 6.232439 1.063057 -4.920928 11.007611 
0.052980 0.418067 1.140601 89.601391 8.304697 84.675276 3.868239 -2.269393 1.490954 -5.541003 -15.232292 16.975144 -2.328490 13.287106 13.416159 0.000000 -0.000000 0.000000 -9.662483 9.115752 -61.891493 -7.443575 -19.683140 132.643074 -3.104225 -4.714248 -15.529167 0.000000 -0.000000 0.000000 3.215758 -12.668037 21.288346 5.113128 4.412944 -8.612885 -1.019576 -0.703312 -0.742609 2.773769 4.283801 -3.826684 -3.007729 -7.585378 6.083184 -17.617527 3.092361 -1.910435 -49.189980 -0.620790 13.350153 0.198405 -58.399958 24.447681 -4.929869 -2.835148 0.689994 19.693748 -0.428037 -1.228198 60.399387 -2.248476 14.135687 -17.327013 52.324154 9.058614 -0.414695 -4.748715 10.668422 
0.054155 0.418555 1.148241 88.709987 7.618556 84.927644 2.706900 -4.403696 1.488297 -6.375429 -17.091612 17.171860 -2.031130 12.282747 10.606321 0.000000 -0.000000 0.000000 -9.159668 10.253669 -61.402844 -7.574283 -19.643734 134.081687 -2.699445 -5.504309 -14.345924 0.000000 -0.000000 0.000000 3.051729 -12.293018 21.677359 4.482545 5.031245 -11.518642 -1.320382 -0.806302 0.316821 3.203833 3.484605 -2.698464 -3.136213 -7.071949 6.910642 -19.167765 3.911517 -1.690448 -49.485180 -0.459176 13.940544 1.921799 -55.900041 22.655791 -5.584499 -2.862790 1.446848 20.125819 -0.689031 -1.318758 59.192850 -2.210704 15.652651 -15.287364 51.744954 11.313241 0.123374 -5.826210 8.782122 
